<?xml version="1.0" encoding="UTF-8" standalone="no"?>
<svg
   xmlns:osb="http://www.openswatchbook.org/uri/2009/osb"
   xmlns:dc="http://purl.org/dc/elements/1.1/"
   xmlns:cc="http://creativecommons.org/ns#"
   xmlns:rdf="http://www.w3.org/1999/02/22-rdf-syntax-ns#"
   xmlns:svg="http://www.w3.org/2000/svg"
   xmlns="http://www.w3.org/2000/svg"
   xmlns:xlink="http://www.w3.org/1999/xlink"
   xmlns:sodipodi="http://sodipodi.sourceforge.net/DTD/sodipodi-0.dtd"
   xmlns:inkscape="http://www.inkscape.org/namespaces/inkscape"
   width="156.32251mm"
   height="53.551666mm"
   viewBox="0 0 156.3225 53.551666"
   version="1.1"
   id="svg901"
   inkscape:version="1.0.2 (e86c870879, 2021-01-15)"
   sodipodi:docname="logo-text.svg">
  <defs
     id="defs895">
    <linearGradient
       inkscape:collect="always"
       id="linearGradient8893">
      <stop
         style="stop-color:#000000;stop-opacity:1;"
         offset="0"
         id="stop8889" />
      <stop
         style="stop-color:#00e7fc;stop-opacity:0"
         offset="1"
         id="stop8891" />
    </linearGradient>
    <linearGradient
       id="linearGradient8856"
       osb:paint="solid">
      <stop
         style="stop-color:#000000;stop-opacity:1;"
         offset="0"
         id="stop8854" />
    </linearGradient>
    <linearGradient
       inkscape:collect="always"
       xlink:href="#linearGradient8893"
       id="linearGradient8895"
       x1="95.892574"
       y1="114.05157"
       x2="182.34073"
       y2="118.93025"
       gradientUnits="userSpaceOnUse"
       gradientTransform="translate(4e-6)" />
  </defs>
  <sodipodi:namedview
     id="base"
     pagecolor="#ffffff"
     bordercolor="#666666"
     borderopacity="1.0"
     inkscape:pageopacity="0.0"
     inkscape:pageshadow="2"
     inkscape:zoom="0.98994949"
     inkscape:cx="264.8528"
     inkscape:cy="287.33662"
     inkscape:document-units="mm"
     inkscape:current-layer="g1014"
     showgrid="false"
     units="px"
     fit-margin-top="0"
     fit-margin-left="0"
     fit-margin-right="0"
     fit-margin-bottom="0"
     inkscape:window-width="3840"
     inkscape:window-height="2081"
     inkscape:window-x="0"
     inkscape:window-y="27"
     inkscape:window-maximized="1"
     inkscape:document-rotation="0" />
  <metadata
     id="metadata898">
    <rdf:RDF>
      <cc:Work
         rdf:about="">
        <dc:format>image/svg+xml</dc:format>
        <dc:type
           rdf:resource="http://purl.org/dc/dcmitype/StillImage" />
        <dc:title />
      </cc:Work>
    </rdf:RDF>
  </metadata>
  <g
     inkscape:label="Calque 1"
     inkscape:groupmode="layer"
     id="layer1"
     transform="translate(-5.3777482,-236.75438)">
    <g
       id="g1014">
      <path
         style="font-style:normal;font-weight:normal;font-size:40px;line-height:1.25;font-family:sans-serif;letter-spacing:0px;word-spacing:0px;fill:#b3b3b3;fill-opacity:1;stroke:none;stroke-width:0.86195123"
         d="m 63.879356,257.20954 v 27.11639 h 3.152132 v -10.89741 h 3.96357 c 2.611175,0 4.582561,-0.68411 5.914158,-2.05234 1.342,-1.36823 2.012996,-3.39031 2.012996,-6.06623 0,-2.6517 -0.670996,-4.66167 -2.012996,-6.0299 -1.331597,-1.38034 -3.302983,-2.07051 -5.914158,-2.07051 z m 81.908684,0.99893 v 5.77563 h -2.10662 v 2.59722 h 2.10662 v 11.04271 c 0,2.54273 0.42132,4.29842 1.26398,5.26708 0.84264,0.95655 2.3719,1.43482 4.58775,1.43482 h 2.94928 v -2.797 h -2.94928 c -1.19635,0 -1.99218,-0.23611 -2.38751,-0.70833 -0.38491,-0.47222 -0.57736,-1.53775 -0.57736,-3.19657 v -11.04271 h 5.91415 v -2.59722 h -5.91415 v -5.77563 z m -78.756552,2.01603 h 3.96357 c 1.466837,0 2.600772,0.44195 3.401814,1.32585 0.801035,0.8839 1.201552,2.1371 1.201552,3.7596 0,1.63461 -0.400517,2.89387 -1.201552,3.77777 -0.801042,0.8839 -1.934977,1.32585 -3.401814,1.32585 h -3.96357 z m 20.707341,3.26922 c -0.936281,0 -1.898569,0.12108 -2.886855,0.36325 -0.988293,0.23005 -2.007802,0.58119 -3.05851,1.05341 v 3.0876 c 0.873859,-0.55698 1.784126,-0.97471 2.73081,-1.2532 0.946676,-0.27849 1.919366,-0.41773 2.918062,-0.41773 1.57087,0 2.788032,0.42378 3.651489,1.27136 0.873851,0.83547 1.310785,2.02207 1.310785,3.55982 v 0.32692 h -4.025992 c -2.611175,0 -4.57736,0.5812 -5.898555,1.74359 -1.310785,1.16239 -1.966177,2.88781 -1.966177,5.17627 0,1.96153 0.525354,3.52955 1.576062,4.70405 1.061119,1.16239 2.486338,1.74358 4.275674,1.74358 1.414817,0 2.611175,-0.29059 3.589058,-0.87179 0.977892,-0.5933 1.794537,-1.50748 2.44993,-2.74252 v 3.0876 h 2.871251 v -11.60574 c 0,-3.09971 -0.624185,-5.41238 -1.872555,-6.93802 -1.24837,-1.52563 -3.136529,-2.28845 -5.664477,-2.28845 z m 22.127361,0 c -1.38361,0 -2.55917,0.3027 -3.52665,0.90812 -0.96748,0.5933 -1.75292,1.50747 -2.3563,2.74251 v -3.16025 h -2.88685 v 20.34183 h 2.88685 v -10.71578 c 0,-2.30057 0.43173,-4.06232 1.29519,-5.28525 0.87385,-1.23504 2.12222,-1.85256 3.74511,-1.85256 0.45773,0 0.87386,0.0545 1.24837,0.16346 0.38491,0.0969 0.73862,0.25428 1.06111,0.47223 l -0.0156,-3.43269 c -0.29129,-0.0605 -0.55657,-0.10292 -0.79584,-0.12714 -0.23927,-0.0363 -0.45774,-0.0545 -0.65539,-0.0545 z m 12.60854,0 c -1.38361,0 -2.55917,0.3027 -3.52665,0.90812 -0.96749,0.5933 -1.75292,1.50747 -2.3563,2.74251 v -3.16025 h -2.88685 v 20.34183 h 2.88685 v -10.71578 c 0,-2.30057 0.43173,-4.06232 1.29518,-5.28525 0.87386,-1.23504 2.12223,-1.85256 3.74511,-1.85256 0.45774,0 0.87386,0.0545 1.24838,0.16346 0.38491,0.0969 0.73861,0.25428 1.06111,0.47223 l -0.0156,-3.43269 c -0.29128,-0.0605 -0.55656,-0.10292 -0.79583,-0.12714 -0.23927,-0.0363 -0.45774,-0.0545 -0.65539,-0.0545 z m 10.59554,0 c -2.50714,0 -4.47333,0.94444 -5.89856,2.83333 -1.41481,1.88888 -2.12222,4.50426 -2.12222,7.84613 0,3.32976 0.70741,5.94514 2.12222,7.84614 1.42523,1.88888 3.39142,2.83332 5.89856,2.83332 2.49674,0 4.45772,-0.94444 5.88294,-2.83332 1.42522,-1.901 2.13784,-4.51638 2.13784,-7.84614 0,-3.34187 -0.71262,-5.95725 -2.13784,-7.84613 -1.42522,-1.88889 -3.3862,-2.83333 -5.88294,-2.83333 z m 0,2.83333 c 1.52925,0 2.74121,0.70833 3.63588,2.12499 0.89466,1.40456 1.342,3.3116 1.342,5.72114 0,2.42165 -0.44734,4.33475 -1.342,5.7393 -0.89467,1.40456 -2.10663,2.10684 -3.63588,2.10684 -1.55006,0 -2.77242,-0.69623 -3.66709,-2.08867 -0.88426,-1.40456 -1.32639,-3.32371 -1.32639,-5.75747 0,-2.43375 0.44733,-4.34686 1.34199,-5.7393 0.89467,-1.40456 2.11183,-2.10683 3.65149,-2.10683 z m -43.521308,7.77348 h 2.855648 v 0.74466 c 0,2.17948 -0.483745,3.92912 -1.451234,5.24892 -0.957078,1.30769 -2.231462,1.96153 -3.823128,1.96153 -1.15474,0 -2.070217,-0.34508 -2.746414,-1.03525 -0.665803,-0.70228 -0.998697,-1.64672 -0.998697,-2.83333 0,-1.48931 0.447328,-2.54273 1.341992,-3.16025 0.894672,-0.61752 2.50195,-0.92628 4.821833,-0.92628 z"
         id="flowRoot3746"
         inkscape:connector-curvature="0" />
      <g
         id="g46"
         transform="matrix(0.23403695,0,0,0.22991765,11.855258,243.10364)">
        <g
           inkscape:label="Livello 1"
           id="layer1-6"
           transform="translate(-14.397736,-20.92775)">
          <path
             style="opacity:1;fill:#55ddff;fill-opacity:1;stroke:none;stroke-width:0.30797;stroke-opacity:1"
             id="path7201"
             sodipodi:type="arc"
             sodipodi:cx="105.05576"
             sodipodi:cy="112.17424"
             sodipodi:rx="90.658028"
             sodipodi:ry="90.657997"
             sodipodi:start="0"
             sodipodi:end="6.2684246"
             d="m 195.71379,112.17424 a 90.658028,90.657997 0 0 1 -90.32348,90.65738 90.658028,90.657997 0 0 1 -90.990105,-89.9883 90.658028,90.657997 0 0 1 89.651945,-91.321522 90.658028,90.657997 0 0 1 91.65176,89.314312"
             sodipodi:open="true"
             sodipodi:arc-type="arc" />
          <path
             style="fill:#000000;fill-opacity:1;stroke:#000000;stroke-width:0.264583px;stroke-linecap:butt;stroke-linejoin:miter;stroke-opacity:1"
             d="m 62.903711,58.218316 -0.746246,23.879864 10.074319,-13.805547 13.805543,10.820563 12.313058,24.999224 16.790525,5.22373 1.11937,70.1471 8.2087,-35.8198 10.07432,19.77551 0.74625,-42.536 20.14863,11.93993 L 110.29031,66.80014 77.828626,54.860208 Z"
             id="path8217"
             inkscape:connector-curvature="0"
             sodipodi:nodetypes="cccccccccccccc" />
        </g>
        <g
           id="layer3"
           inkscape:label="Livello 0">
          <path
             style="opacity:0.762;fill:url(#linearGradient8895);fill-opacity:1;stroke:none;stroke-width:0.264583px;stroke-linecap:butt;stroke-linejoin:miter;stroke-opacity:1"
             d="m 95.892578,45.872389 45.147862,66.042751 -20.14863,-11.939932 -0.74625,42.536002 -10.07432,-19.77551 -8.2087,35.8198 17.7282,18.58344 c 22.26858,-8.08048 31.55654,-18.96599 33.20075,-19.91627 2.29371,-2.09479 6.49728,-6.29961 9.69406,-10.73512 2.53067,-3.51128 7.92312,-11.78798 8.3419,-13.66552 46.47615,-208.366313 6.01404,-14.44849 10.33323,-32.11833 z"
             id="path8887"
             inkscape:connector-curvature="0"
             sodipodi:nodetypes="ccccccccsscc"
             inkscape:export-xdpi="878.25311"
             inkscape:export-ydpi="878.25311" />
          <flowRoot
             xml:space="preserve"
             id="flowRoot10145"
             style="font-style:normal;font-weight:normal;font-size:40px;line-height:1.25;font-family:sans-serif;letter-spacing:0px;word-spacing:0px;fill:#000000;fill-opacity:1;stroke:none"
             transform="matrix(0.3721784,0,0,0.31047784,-6.8135841,-16.980342)"><flowRegion
               id="flowRegion10147"><rect
                 id="rect10149"
                 width="142.90314"
                 height="164.79956"
                 x="61.079563"
                 y="363.75677" /></flowRegion><flowPara
               id="flowPara10151">ParrotOSpa</flowPara></flowRoot>
        </g>
      </g>
    </g>
  </g>
</svg>
