<?xml version="1.0" encoding="UTF-8" standalone="no"?>
<svg
   xmlns:dc="http://purl.org/dc/elements/1.1/"
   xmlns:cc="http://creativecommons.org/ns#"
   xmlns:rdf="http://www.w3.org/1999/02/22-rdf-syntax-ns#"
   xmlns:svg="http://www.w3.org/2000/svg"
   xmlns="http://www.w3.org/2000/svg"
   xmlns:sodipodi="http://sodipodi.sourceforge.net/DTD/sodipodi-0.dtd"
   xmlns:inkscape="http://www.inkscape.org/namespaces/inkscape"
   version="1.1"
   id="Layer_1"
   x="0px"
   y="0px"
   width="640px"
   height="480px"
   viewBox="0 0 640 480"
   enable-background="new 0 0 640 480"
   xml:space="preserve"
   inkscape:version="0.48.5 r10040"
   sodipodi:docname="grub.svg"
   inkscape:export-filename="/tmp/grub.png"
   inkscape:export-xdpi="90"
   inkscape:export-ydpi="90"><metadata
     id="metadata3111"><rdf:RDF><cc:Work
         rdf:about=""><dc:format>image/svg+xml</dc:format><dc:type
           rdf:resource="http://purl.org/dc/dcmitype/StillImage" /><dc:title></dc:title></cc:Work></rdf:RDF></metadata><defs
     id="defs3109" /><sodipodi:namedview
     pagecolor="#ffffff"
     bordercolor="#666666"
     borderopacity="1"
     objecttolerance="10"
     gridtolerance="10"
     guidetolerance="10"
     inkscape:pageopacity="0"
     inkscape:pageshadow="2"
     inkscape:window-width="952"
     inkscape:window-height="1014"
     id="namedview3107"
     showgrid="false"
     inkscape:zoom="0.98333333"
     inkscape:cx="341.97314"
     inkscape:cy="225.72977"
     inkscape:window-x="960"
     inkscape:window-y="0"
     inkscape:window-maximized="0"
     inkscape:current-layer="Layer_1" /><radialGradient
     id="background_1_"
     cx="739.7764"
     cy="47.0376"
     r="855.789"
     fx="650.5538"
     fy="51.8628"
     gradientTransform="matrix(0.7783 0 0 1.0096 3.9834 5.9004)"
     gradientUnits="userSpaceOnUse"><stop
       offset="0"
       style="stop-color:#073246"
       id="stop2987" /><stop
       offset="0.1012"
       style="stop-color:#144352"
       id="stop2989" /><stop
       offset="0.3207"
       style="stop-color:#357177"
       id="stop2991" /><stop
       offset="0.4409"
       style="stop-color:#489291"
       id="stop2993" /><stop
       offset="0.5707"
       style="stop-color:#37757B"
       id="stop2995" /><stop
       offset="0.8567"
       style="stop-color:#164353"
       id="stop2997" /><stop
       offset="0.9891"
       style="stop-color:#063246"
       id="stop2999" /></radialGradient><rect
     id="background"
     fill-rule="evenodd"
     clip-rule="evenodd"
     fill="url(#background_1_)"
     width="644.332"
     height="483.668" /><g
     id="swirl"><radialGradient
       id="SVGID_1_"
       cx="552.4375"
       cy="377.9375"
       r="3.3804"
       gradientTransform="matrix(1.0725 0 0 0.9931 -22.7588 -0.2271)"
       gradientUnits="userSpaceOnUse"><stop
         offset="0"
         style="stop-color:#FFF1E9"
         id="stop3004" /><stop
         offset="1"
         style="stop-color:#FFFFFF;stop-opacity:0.2"
         id="stop3006" /></radialGradient><path
       fill="url(#SVGID_1_)"
       d="M566.125,374.093c-3.433,0.049,0.649,1.765,5.129,2.455c1.239-0.966,2.363-1.94,3.36-2.891   C571.824,374.338,568.986,374.354,566.125,374.093"
       id="path3008" /><radialGradient
       id="SVGID_2_"
       cx="567.1455"
       cy="367.7295"
       r="3.8273"
       gradientTransform="matrix(1.0725 0 0 0.9931 -22.7588 -0.2271)"
       gradientUnits="userSpaceOnUse"><stop
         offset="0"
         style="stop-color:#FFF1E9"
         id="stop3011" /><stop
         offset="1"
         style="stop-color:#FFFFFF;stop-opacity:0.2"
         id="stop3013" /></radialGradient><path
       fill="url(#SVGID_2_)"
       d="M584.549,369.508c2.043-2.814,3.534-5.898,4.059-9.086c-0.459,2.271-1.694,4.234-2.855,6.303   c-6.416,4.034-0.606-2.393-0.005-4.837C578.849,370.557,584.797,367.087,584.549,369.508"
       id="path3015" /><radialGradient
       id="SVGID_3_"
       cx="571.8037"
       cy="352.8438"
       r="1.8586"
       gradientTransform="matrix(1.0725 0 0 0.9931 -22.7588 -0.2271)"
       gradientUnits="userSpaceOnUse"><stop
         offset="0"
         style="stop-color:#FFF1E9"
         id="stop3018" /><stop
         offset="1"
         style="stop-color:#FFFFFF;stop-opacity:0.2"
         id="stop3020" /></radialGradient><path
       fill="url(#SVGID_3_)"
       d="M591.352,351.844c0.413-6.171-1.219-4.22-1.769-1.863   C590.223,350.311,590.732,354.328,591.352,351.844"
       id="path3022" /><radialGradient
       id="SVGID_4_"
       cx="539.2695"
       cy="270.1064"
       r="1.6877"
       gradientTransform="matrix(1.0725 0 0 0.9931 -22.7588 -0.2271)"
       gradientUnits="userSpaceOnUse"><stop
         offset="0"
         style="stop-color:#FFF1E9"
         id="stop3025" /><stop
         offset="1"
         style="stop-color:#FFFFFF;stop-opacity:0.2"
         id="stop3027" /></radialGradient><path
       fill="url(#SVGID_4_)"
       d="M553.106,267.506c1.833,0.329,3.96,0.58,3.66,1.019   C558.771,268.083,559.226,267.683,553.106,267.506"
       id="path3029" /><radialGradient
       id="SVGID_5_"
       cx="539.748"
       cy="270.7529"
       r="0.4364"
       gradientTransform="matrix(1.0725 0 0 0.9931 -22.7588 -0.2271)"
       gradientUnits="userSpaceOnUse"><stop
         offset="0"
         style="stop-color:#FFF1E9"
         id="stop3032" /><stop
         offset="1"
         style="stop-color:#FFFFFF;stop-opacity:0.2"
         id="stop3034" /></radialGradient><path
       fill="url(#SVGID_5_)"
       d="M556.767,268.524l-1.293,0.266l1.203-0.105L556.767,268.524"
       id="path3036" /><radialGradient
       id="SVGID_6_"
       cx="534.4756"
       cy="371.7637"
       r="91.1613"
       gradientTransform="matrix(1.0725 0 0 0.9931 -22.7588 -0.2271)"
       gradientUnits="userSpaceOnUse"><stop
         offset="0"
         style="stop-color:#FFF1E9"
         id="stop3039" /><stop
         offset="1"
         style="stop-color:#FFFFFF;stop-opacity:0.2"
         id="stop3041" /></radialGradient><path
       fill="url(#SVGID_6_)"
       d="M613.893,354.184c0.204,5.541-1.623,8.23-3.272,12.989l-2.969,1.479   c-2.427,4.707,0.236,2.987-1.501,6.729c-3.791,3.366-11.503,10.528-13.972,11.179c-1.8-0.036,1.223-2.122,1.616-2.938   c-5.072,3.479-4.067,5.223-11.828,7.336l-0.228-0.503c-19.139,8.985-45.722-8.824-45.371-33.125   c-0.207,1.544-0.579,1.159-1.007,1.782c-0.986-12.503,5.787-25.061,17.206-30.188c11.173-5.521,24.269-3.255,32.272,4.188   c-4.396-5.748-13.144-11.838-23.516-11.27c-10.157,0.162-19.656,6.603-22.827,13.598c-5.206,3.272-5.808,12.607-8.076,14.314   c-3.051,22.381,5.736,32.048,20.603,43.422c2.341,1.576,0.665,1.813,0.98,3.011c-4.941-2.307-9.463-5.794-13.182-10.059   c1.973,2.882,4.102,5.685,6.855,7.89c-4.66-1.575-10.881-11.27-12.698-11.663c8.029,14.351,32.573,25.166,45.426,19.799   c-5.944,0.222-13.502,0.122-20.185-2.34c-2.804-1.443-6.622-4.43-5.937-4.988c17.539,6.54,35.657,4.952,50.836-7.189   c3.859-3.002,8.078-8.106,9.294-8.177c-1.833,2.751,0.316,1.321-1.095,3.755c3.85-6.192-1.672-2.52,3.975-10.694l2.088,2.866   c-0.775-5.138,6.397-11.384,5.67-19.514c1.644-2.487,1.834,2.676,0.089,8.396c2.422-6.345,0.639-7.364,1.259-12.6   c0.674,1.757,1.557,3.628,2.009,5.483c-1.578-6.129,1.62-10.325,2.41-13.889c-0.776-0.345-2.435,2.71-2.813-4.533   c0.058-3.146,0.878-1.648,1.196-2.423c-0.62-0.356-2.243-2.767-3.232-7.394c0.717-1.084,1.912,2.817,2.89,2.979   c-0.626-3.678-1.707-6.481-1.75-9.303c-2.846-5.939-1.005,0.788-3.318-2.551c-3.027-9.435,2.517-2.191,2.89-6.476   c4.594,6.643,7.211,16.936,8.412,21.196c-0.917-5.196-2.398-10.231-4.209-15.105c1.396,0.586-2.244-10.691,1.813-3.224   c-4.335-15.927-18.555-30.806-31.643-37.785c1.603,1.458,3.622,7.11,2.897,7.397c-6.508-3.867-5.363-7.981-6.294-9.615   c-5.304-2.151-5.648,0.172-9.159,0.005c-9.992-5.29-11.918-4.728-21.112-8.043l0.42,1.952c-6.622-2.201-7.713,0.834-14.867,0.006   c-0.436-0.338,2.292-1.226,4.538-1.554c-6.397,0.844-6.101-1.258-12.361,0.23c1.543-1.081,3.174-1.795,4.821-2.714   c-5.219,0.315-12.46,3.033-10.223,0.564c-8.516,3.79-23.633,9.112-32.116,17.053l-0.266-1.779   c-3.889,4.657-16.953,13.911-17.992,19.945l-1.041,0.24c-2.021,3.42-3.332,7.296-4.936,10.809   c-2.646,4.503-3.879,1.736-3.502,2.439c-5.2,10.531-7.788,19.382-10.021,26.636c1.591,2.377,0.038,14.294,0.638,23.832   c-2.613,47.106,33.121,92.84,72.184,103.402c5.724,2.044,14.237,1.967,21.479,2.175c-8.543-2.438-9.65-1.291-17.972-4.19   c-6.003-2.817-7.321-6.043-11.572-9.725l1.686,2.967c-8.343-2.948-4.853-3.647-11.639-5.792l1.797-2.343   c-2.702-0.204-7.159-4.548-8.376-6.951l-2.957,0.117c-3.557-4.38-5.447-7.53-5.311-9.973l-0.953,1.697   c-1.083-1.854-13.076-16.415-6.854-13.023c-1.154-1.057-2.692-1.717-4.356-4.739l1.268-1.443   c-2.994-3.845-5.511-8.771-5.319-10.412c1.595,2.15,2.704,2.552,3.802,2.924c-7.561-18.724-7.982-1.032-13.711-19.059l1.214-0.097   c-0.93-1.394-1.494-2.909-2.237-4.4l0.524-5.244c-5.442-6.277-1.522-26.707-0.737-37.907c0.543-4.555,4.542-9.402,7.584-17.009   l-1.853-0.317c3.543-6.166,20.222-24.764,27.946-23.806c3.744-4.694-0.741-0.021-1.473-1.2c8.22-8.491,10.806-6.001,16.351-7.527   c5.982-3.544-5.136,1.383-2.294-1.353c10.34-2.639,7.327-5.995,20.816-7.332c1.424,0.808-3.3,1.246-4.486,2.296   c8.615-4.206,27.267-3.249,39.383,2.337c14.059,6.56,29.852,25.944,30.477,44.18l0.709,0.19c-0.36,7.25,1.108,15.633-1.436,23.336   L613.893,354.184"
       id="path3043" /><radialGradient
       id="SVGID_7_"
       cx="516.9199"
       cy="387.2793"
       r="4.584"
       gradientTransform="matrix(1.0725 0 0 0.9931 -22.7588 -0.2271)"
       gradientUnits="userSpaceOnUse"><stop
         offset="0"
         style="stop-color:#FFF1E9"
         id="stop3046" /><stop
         offset="1"
         style="stop-color:#FFFFFF;stop-opacity:0.2"
         id="stop3048" /></radialGradient><path
       fill="url(#SVGID_7_)"
       d="M528.655,378.797l-0.481,2.4c2.256,3.059,4.047,6.374,6.928,8.765   C533.027,385.925,531.489,384.256,528.655,378.797"
       id="path3050" /><radialGradient
       id="SVGID_8_"
       cx="518.3516"
       cy="380.752"
       r="2.9717"
       gradientTransform="matrix(1.0725 0 0 0.9931 -22.7588 -0.2271)"
       gradientUnits="userSpaceOnUse"><stop
         offset="0"
         style="stop-color:#FFF1E9"
         id="stop3053" /><stop
         offset="1"
         style="stop-color:#FFFFFF;stop-opacity:0.2"
         id="stop3055" /></radialGradient><path
       fill="url(#SVGID_8_)"
       d="M533.989,378.589c-1.191-1.319-1.901-2.907-2.69-4.488c0.754,2.777,2.306,5.165,3.748,7.593   L533.989,378.589"
       id="path3057" /><radialGradient
       id="SVGID_9_"
       cx="604.084"
       cy="371.0586"
       r="7.544"
       gradientTransform="matrix(1.0725 0 0 0.9931 -22.7588 -0.2271)"
       gradientUnits="userSpaceOnUse"><stop
         offset="0"
         style="stop-color:#FFF1E9"
         id="stop3060" /><stop
         offset="1"
         style="stop-color:#FFFFFF;stop-opacity:0.2"
         id="stop3062" /></radialGradient><path
       fill="url(#SVGID_9_)"
       d="M628.363,358.111l-0.505,1.263c-0.922,6.556-2.919,13.044-5.979,19.058   C625.259,372.084,627.447,365.143,628.363,358.111"
       id="path3064" /><radialGradient
       id="SVGID_10_"
       cx="540.7305"
       cy="267.4238"
       r="3.1712"
       gradientTransform="matrix(1.0725 0 0 0.9931 -22.7588 -0.2271)"
       gradientUnits="userSpaceOnUse"><stop
         offset="0"
         style="stop-color:#FFF1E9"
         id="stop3067" /><stop
         offset="1"
         style="stop-color:#FFFFFF;stop-opacity:0.2"
         id="stop3069" /></radialGradient><path
       fill="url(#SVGID_10_)"
       d="M553.787,265.863c2.318-0.848,5.704-0.466,8.165-1.023c-3.21,0.267-6.4,0.429-9.557,0.835   L553.787,265.863"
       id="path3071" /><radialGradient
       id="SVGID_11_"
       cx="461.8672"
       cy="314.1152"
       r="2.1212"
       gradientTransform="matrix(1.0725 0 0 0.9931 -22.7588 -0.2271)"
       gradientUnits="userSpaceOnUse"><stop
         offset="0"
         style="stop-color:#FFF1E9"
         id="stop3074" /><stop
         offset="1"
         style="stop-color:#FFFFFF;stop-opacity:0.2"
         id="stop3076" /></radialGradient><path
       fill="url(#SVGID_11_)"
       d="M472.303,309.113c0.534,4.942-3.726,6.859,0.944,3.601   C475.746,307.086,472.267,311.161,472.303,309.113"
       id="path3078" /><radialGradient
       id="SVGID_12_"
       cx="457.1895"
       cy="330.9063"
       r="2.6271"
       gradientTransform="matrix(1.0725 0 0 0.9931 -22.7588 -0.2271)"
       gradientUnits="userSpaceOnUse"><stop
         offset="0"
         style="stop-color:#FFF1E9"
         id="stop3081" /><stop
         offset="1"
         style="stop-color:#FFFFFF;stop-opacity:0.2"
         id="stop3083" /></radialGradient><path
       fill="url(#SVGID_12_)"
       d="M466.816,331.986c1.074-3.295,1.27-5.273,1.679-7.181   C465.526,328.6,467.129,329.406,466.816,331.986"
       id="path3085" /></g><g
     id="g3087"><g
       opacity="0.8"
       id="g3089"><path
         opacity="0.8"
         fill="#FFFFFF"
         enable-background="new    "
         d="M30.996,450.854c-0.025,0.027-0.025,4.313-0.08,5.434    c-0.053,0.904-0.133,2.85-2.05,2.85c-1.971,0-2.45-2.266-2.609-3.252c-0.186-1.09-0.186-1.997-0.186-2.395    c0-1.279,0.08-4.849,3.089-4.849c0.904,0,1.411,0.267,1.811,0.479L30.996,450.854z M23.274,453.996    c0,7.512,3.995,7.512,4.582,7.512c1.65,0,2.716-0.907,3.167-2.477l0.054,2.37c0.506-0.03,1.012-0.081,1.837-0.081    c0.293,0,0.532,0,0.747,0.026c0.213,0,0.425,0.026,0.666,0.056c-0.426-0.853-0.746-2.771-0.746-6.928    c0-4.047,0-10.89,0.346-12.968c-0.958,0.454-1.785,0.746-3.595,0.906c0.719,0.771,0.719,1.172,0.719,4.685    c-0.505-0.158-1.144-0.346-2.235-0.346C24.046,446.752,23.274,450.907,23.274,453.996"
         id="path3091" /><path
         opacity="0.8"
         fill="#FFFFFF"
         enable-background="new    "
         d="M37.715,452.638c0.027-2.211,0.48-4.181,2.37-4.181    c2.077,0,2.236,2.289,2.183,4.181H37.715z M44.905,452.905c0-3.118-0.612-6.18-4.554-6.18c-5.431,0-5.431,6.02-5.431,7.297    c0,5.404,2.421,7.535,6.496,7.535c1.811,0,2.69-0.267,3.169-0.397c-0.025-0.961,0.107-1.571,0.268-2.398    c-0.56,0.348-1.279,0.8-2.878,0.8c-4.153,0-4.207-3.783-4.207-5.089h7.085L44.905,452.905"
         id="path3093" /><path
         opacity="0.8"
         fill="#FFFFFF"
         enable-background="new    "
         d="M53.567,454.049c0,2.476-0.453,5.809-3.541,5.809    c-0.427,0-0.958-0.083-1.304-0.163c-0.055-0.959-0.055-2.61-0.055-4.527c0-2.289,0.239-3.486,0.427-4.074    c0.559-1.891,1.811-1.916,2.049-1.916C53.168,449.177,53.567,451.973,53.567,454.049z M45.926,456.951    c0,1.973,0,3.092-0.319,3.941c1.09,0.427,2.449,0.665,4.075,0.665c1.037,0,4.046,0,5.67-3.327    c0.773-1.545,1.039-3.623,1.039-5.194c0-0.959-0.106-3.062-0.879-4.394c-0.745-1.25-1.943-1.891-3.221-1.891    c-2.557,0-3.301,2.131-3.701,3.223c0-1.357,0.026-6.099,0.239-8.521c-1.73,0.799-2.797,0.932-3.94,1.039    c1.038,0.425,1.038,2.184,1.038,7.909V456.951"
         id="path3095" /><path
         opacity="0.8"
         fill="#FFFFFF"
         enable-background="new    "
         d="M61.511,461.401c-0.534-0.081-0.908-0.134-1.68-0.134    c-0.851,0-1.438,0.053-2.05,0.134c0.267-0.509,0.373-0.751,0.453-2.479c0.106-2.371,0.134-8.709-0.052-10.041    c-0.134-1.013-0.373-1.171-0.746-1.438c2.184-0.214,2.795-0.372,3.808-0.853c-0.213,1.171-0.24,1.758-0.24,3.542    C60.951,459.322,60.922,460.31,61.511,461.401"
         id="path3097" /><path
         opacity="0.8"
         fill="#FFFFFF"
         enable-background="new    "
         d="M70.037,453.861c-0.054,1.678-0.08,2.852-0.534,3.782    c-0.559,1.198-1.49,1.545-2.184,1.545c-1.599,0-1.944-1.331-1.944-2.637c0-2.503,2.238-2.691,3.249-2.691L70.037,453.861    L70.037,453.861L70.037,453.861z M62.713,457.139c0,1.677,0.507,3.355,1.998,4.075c0.666,0.294,1.331,0.294,1.545,0.294    c2.451,0,3.275-1.813,3.781-2.934c-0.027,1.172,0,1.894,0.081,2.827c0.479-0.03,0.958-0.082,1.757-0.082    c0.453,0,0.878,0.052,1.33,0.082c-0.293-0.454-0.452-0.722-0.532-1.759c-0.053-1.012-0.053-2.025-0.053-3.438l0.027-5.432    c0-2.024-0.534-4.022-4.528-4.022c-2.636,0-4.18,0.8-4.952,1.2c0.32,0.585,0.586,1.09,0.826,2.237    c1.04-0.907,2.398-1.387,3.781-1.387c2.212,0,2.212,1.467,2.212,3.54c-0.507-0.024-0.934-0.076-1.653-0.076    C64.95,452.267,62.713,453.57,62.713,457.139"
         id="path3099" /><path
         opacity="0.8"
         fill="#FFFFFF"
         enable-background="new    "
         d="M85.374,458.763c0.027,0.907,0.027,1.864,0.4,2.639    c-0.587-0.055-0.934-0.134-2.023-0.134c-0.64,0-0.986,0.053-1.493,0.134c0.106-0.348,0.16-0.479,0.214-0.933    c0.08-0.611,0.133-2.664,0.133-3.385v-2.876c0-1.25,0-3.063-0.081-3.701c-0.053-0.451-0.186-1.678-1.73-1.678    c-1.518,0-2.024,1.118-2.21,2.024c-0.211,0.932-0.211,1.943-0.211,5.886c0.025,3.409,0.025,3.729,0.292,4.662    c-0.453-0.056-1.011-0.109-1.809-0.109c-0.641,0-1.067,0.027-1.598,0.109c0.186-0.426,0.294-0.642,0.346-2.132    c0.055-1.464,0.161-8.656-0.08-10.36c-0.134-1.038-0.399-1.276-0.692-1.543c2.157-0.107,2.85-0.453,3.516-0.799v2.822    c0.319-0.828,0.985-2.664,3.648-2.664c3.327,0,3.354,2.423,3.381,4.021v8.017"
         id="path3101" /><path
         opacity="0.8"
         fill="#FFFFFF"
         enable-background="new    "
         d="M61.734,442.824l-2.206,2.204l-2.205-2.204l2.206-2.204    L61.734,442.824"
         id="path3103" /></g><text
       transform="matrix(1 0 0 1 88.0225 456.6748)"
       opacity="0.8"
       fill="#FFFFFF"
       enable-background="new    "
       font-family="'Poppl-Laudatio-Condensed'"
       font-size="14.9885"
       id="text3105">8</text>
</g></svg>