<?xml version="1.0" encoding="utf-8"?>
<!-- Generator: Adobe Illustrator 16.0.0, SVG Export Plug-In . SVG Version: 6.00 Build 0)  -->
<!DOCTYPE svg PUBLIC "-//W3C//DTD SVG 1.1//EN" "http://www.w3.org/Graphics/SVG/1.1/DTD/svg11.dtd">
<svg version="1.1" xmlns="http://www.w3.org/2000/svg" xmlns:xlink="http://www.w3.org/1999/xlink" x="0px" y="0px" width="380px"
	 height="380px" viewBox="0 0 380 380" enable-background="new 0 0 380 380" xml:space="preserve">
<g id="Layer_1">
	<g id="Layer_1_1_">
	</g>
</g>
<g id="Layer_2">
	<g>
		<defs>
			<path id="SVGID_1_" d="M380,370c0,5.522-4.478,10-10,10H10c-5.523,0-10-4.478-10-10V10C0,4.477,4.477,0,10,0h360
				c5.522,0,10,4.477,10,10V370z"/>
		</defs>
		<clipPath id="SVGID_2_">
			<use xlink:href="#SVGID_1_"  overflow="visible"/>
		</clipPath>
		<g id="background" clip-path="url(#SVGID_2_)">
			<g id="background_1_">
				
					<linearGradient id="SVGID_3_" gradientUnits="userSpaceOnUse" x1="-2612.4248" y1="2460.7148" x2="-2612.425" y2="1822.6733" gradientTransform="matrix(1 0 0 -1 2704.0195 2320.918)">
					<stop  offset="0" style="stop-color:#133456"/>
					<stop  offset="0.5025" style="stop-color:#7C9999"/>
					<stop  offset="1" style="stop-color:#333333"/>
				</linearGradient>
				<rect x="-313.717" y="-141.332" fill="url(#SVGID_3_)" width="810.623" height="639.233"/>
			</g>
			<g id="Layer_4">
				
					<radialGradient id="SVGID_4_" cx="-2468.126" cy="1573.6113" r="903.9994" gradientTransform="matrix(0.4374 0 0 -0.6163 1133.4041 1131.3044)" gradientUnits="userSpaceOnUse">
					<stop  offset="0" style="stop-color:#E4C8A5;stop-opacity:0.5"/>
					<stop  offset="0.1429" style="stop-color:#AEAB94;stop-opacity:0.4372"/>
					<stop  offset="0.3797" style="stop-color:#597F78;stop-opacity:0.3331"/>
					<stop  offset="0.4877" style="stop-color:#386D6D;stop-opacity:0.2857"/>
				</radialGradient>
				<rect x="-313.717" y="-140.735" fill="url(#SVGID_4_)" width="810.623" height="638.637"/>
			</g>
		</g>
		<g id="octopus_1_" clip-path="url(#SVGID_2_)">
			
				<radialGradient id="SVGID_5_" cx="4194.5713" cy="-1616.501" r="310.2602" gradientTransform="matrix(-1.1287 0 0 1.2989 5004.1992 2255.8926)" gradientUnits="userSpaceOnUse">
				<stop  offset="0" style="stop-color:#BCCCB3"/>
				<stop  offset="1" style="stop-color:#FDF9C9;stop-opacity:0"/>
			</radialGradient>
			<path opacity="0.5" fill="url(#SVGID_5_)" enable-background="new    " d="M-2.947,59.404c0,0-41.23,58.153-27.509,119.878
				c23.195,104.341,93.423,121.015,207.186,91.333c200.459-52.309,207.387,64.503,205.902,75.353l14.075-1.639
				c6.982-18.347-8.638-144.177-209.095-91.872C73.852,282.143,3.621,265.461-19.573,161.126
				C-33.293,99.396-2.947,59.404-2.947,59.404"/>
			
				<radialGradient id="SVGID_6_" cx="4225.666" cy="-1563.373" r="154.8099" gradientTransform="matrix(-1.1287 0 0 1.2989 5004.1992 2255.8926)" gradientUnits="userSpaceOnUse">
				<stop  offset="0" style="stop-color:#BCCCB3"/>
				<stop  offset="1" style="stop-color:#FDF9C9;stop-opacity:0"/>
			</radialGradient>
			<path opacity="0.2" fill="url(#SVGID_6_)" enable-background="new    " d="M51.544,81.943c0,0-41.229,58.156-27.508,119.882
				c23.194,104.338,93.423,121.016,207.183,91.332c200.458-52.306,207.392,64.506,205.899,75.354l10.884-18.158
				c1.487-10.848-5.439-127.658-205.9-75.354c-113.759,29.686-183.988,13.01-207.185-91.331
				C21.197,121.945,51.544,81.943,51.544,81.943"/>
			
				<linearGradient id="SVGID_7_" gradientUnits="userSpaceOnUse" x1="4015.3711" y1="-1473.8018" x2="4450.2793" y2="-1473.8018" gradientTransform="matrix(-1 0 0 1 4446.9844 1650.9131)">
				<stop  offset="0" style="stop-color:#ABCCB3;stop-opacity:0.7"/>
				<stop  offset="0.33" style="stop-color:#B4CFB5;stop-opacity:0.05"/>
				<stop  offset="0.803" style="stop-color:#C1D4B8;stop-opacity:0.5"/>
				<stop  offset="1" style="stop-color:#FDF9C9;stop-opacity:0"/>
			</linearGradient>
			<path opacity="0.4" fill="url(#SVGID_7_)" enable-background="new    " d="M-3.295,125.882c0,0,11.753-51.347,63.854-72.888
				c96.979-45.662,153.061,46.564,186.732,138.6c2.977,8.131,10.413,28.684,22.689,68.068c16.217,52.02,38.313,52.656,87.315,42.046
				c75.59-19.722,70.509,24.324,69.943,28.414l4.104-6.847c0.563-4.088,5.645-48.137-69.943-28.411
				c-46.751,11.506-69.495-0.349-82.61-39.911c-13.114-39.563-13.919-41.043-26.294-77.488C210.05,52.422,161.36,2.794,67.52,32.441
				C15.417,53.984-3.295,125.882-3.295,125.882"/>
		</g>
		<g id="logoGroup_2_" clip-path="url(#SVGID_2_)">
			<circle fill="#386D6D" cx="73.567" cy="166.969" r="50.771"/>
			<g id="logo_2_" enable-background="new    ">
				<path fill="#FFFFFF" d="M78.028,169.48c-0.942,0.01,0.18,0.482,1.409,0.672c0.341-0.265,0.646-0.533,0.922-0.795
					C79.594,169.548,78.814,169.552,78.028,169.48"/>
				<path fill="#FFFFFF" d="M83.085,168.219c0.562-0.775,0.973-1.624,1.114-2.5c-0.126,0.626-0.465,1.163-0.783,1.733
					c-1.761,1.109-0.166-0.656-0.001-1.332C81.523,168.507,83.155,167.552,83.085,168.219"/>
				<path fill="#FFFFFF" d="M84.952,163.359c0.115-1.695-0.331-1.158-0.479-0.514C84.645,162.938,84.785,164.042,84.952,163.359"/>
				<path fill="#FFFFFF" d="M74.453,140.162c0.503,0.092,1.089,0.16,1.005,0.279C76.007,140.318,76.132,140.209,74.453,140.162"/>
				<path fill="#FFFFFF" d="M75.458,140.439l-0.353,0.076l0.328-0.032L75.458,140.439"/>
				<path fill="#FFFFFF" d="M91.143,164.003c0.057,1.524-0.445,2.266-0.898,3.574l-0.815,0.406
					c-0.666,1.297,0.066,0.825-0.409,1.852c-1.044,0.928-3.158,2.895-3.834,3.076c-0.496-0.015,0.337-0.588,0.442-0.808
					c-1.392,0.955-1.114,1.435-3.248,2.015l-0.064-0.139c-5.253,2.473-12.552-2.423-12.456-9.108
					c-0.056,0.422-0.158,0.319-0.277,0.489c-0.27-3.438,1.59-6.894,4.725-8.307c3.071-1.519,6.668-0.898,8.861,1.155
					c-1.208-1.581-3.608-3.255-6.453-3.102c-2.788,0.05-5.401,1.821-6.27,3.743c-1.431,0.898-1.596,3.468-2.217,3.936
					c-0.84,6.155,1.577,8.814,5.662,11.945c0.638,0.434,0.179,0.497,0.266,0.827c-1.359-0.634-2.598-1.595-3.62-2.769
					c0.542,0.793,1.13,1.562,1.885,2.168c-1.278-0.431-2.988-3.101-3.487-3.206c2.205,3.948,8.94,6.923,12.473,5.444
					c-1.632,0.062-3.706,0.033-5.544-0.646c-0.77-0.396-1.82-1.215-1.633-1.369c4.818,1.799,9.789,1.359,13.959-1.979
					c1.063-0.828,2.221-2.23,2.554-2.25c-0.504,0.76,0.086,0.366-0.303,1.035c1.057-1.705-0.458-0.695,1.091-2.943l0.573,0.787
					c-0.215-1.416,1.759-3.13,1.557-5.369c0.454-0.684,0.504,0.738,0.022,2.311c0.667-1.746,0.178-2.021,0.348-3.467
					c0.183,0.483,0.428,1,0.555,1.51c-0.436-1.688,0.441-2.84,0.661-3.817c-0.218-0.097-0.67,0.741-0.773-1.246
					c0.015-0.866,0.241-0.456,0.327-0.669c-0.17-0.098-0.615-0.762-0.886-2.035c0.197-0.298,0.525,0.773,0.792,0.816
					c-0.171-1.008-0.468-1.781-0.481-2.557c-0.782-1.632-0.279,0.22-0.91-0.7c-0.831-2.597,0.688-0.603,0.797-1.782
					c1.256,1.828,1.975,4.658,2.306,5.834c-0.251-1.43-0.655-2.814-1.155-4.158c0.381,0.166-0.619-2.94,0.496-0.885
					c-1.189-4.38-5.097-8.473-8.688-10.393c0.441,0.401,0.996,0.906,0.8,0.987c-1.791-1.063-1.476-1.147-1.731-1.597
					c-1.457-0.594-1.553,0.049-2.512,0.002c-2.742-1.457-3.273-1.303-5.798-2.213l0.115,0.541c-1.819-0.609-2.119,0.226-4.082,0
					c-0.117-0.096,0.629-0.34,1.247-0.43c-1.759,0.231-1.676-0.344-3.394,0.067c0.421-0.296,0.871-0.497,1.321-0.747
					c-1.43,0.086-3.42,0.835-2.806,0.15c-2.339,1.045-6.488,2.509-8.817,4.695l-0.073-0.489c-1.07,1.282-4.653,3.823-4.941,5.487
					l-0.284,0.064c-0.554,0.943-0.914,2.007-1.357,2.972c-0.726,1.237-1.064,0.476-0.959,0.669c-1.431,2.898-2.14,5.332-2.753,7.328
					c0.438,0.654,0.01,3.932,0.175,6.556c-0.716,12.954,9.095,25.539,19.817,28.441c1.571,0.564,3.907,0.543,5.895,0.598
					c-2.345-0.67-2.646-0.354-4.932-1.154c-1.647-0.772-2.01-1.657-3.178-2.676l0.462,0.816c-2.288-0.811-1.33-1.002-3.194-1.592
					l0.496-0.643c-0.741-0.058-1.964-1.25-2.302-1.917l-0.811,0.035c-0.976-1.205-1.496-2.07-1.457-2.746l-0.265,0.469
					c-0.295-0.51-3.588-4.513-1.882-3.582c-0.315-0.289-0.74-0.472-1.196-1.301l0.349-0.396c-0.822-1.058-1.515-2.415-1.459-2.868
					c0.438,0.592,0.74,0.701,1.041,0.803c-2.075-5.149-2.194-0.283-3.762-5.242l0.335-0.024c-0.256-0.387-0.412-0.801-0.616-1.212
					l0.145-1.443c-1.49-1.722-0.416-7.344-0.201-10.423c0.149-1.253,1.246-2.588,2.081-4.681l-0.508-0.089
					c0.97-1.692,5.55-6.81,7.672-6.55c1.03-1.287-0.203-0.004-0.406-0.328c2.26-2.336,2.968-1.647,4.492-2.069
					c1.643-0.974-1.409,0.378-0.63-0.369c2.841-0.727,2.013-1.649,5.717-2.019c0.391,0.222-0.906,0.34-1.23,0.63
					c2.367-1.158,7.488-0.894,10.814,0.64c3.856,1.807,8.192,7.137,8.365,12.154l0.196,0.05c-0.1,1.994,0.305,4.301-0.397,6.421
					L91.143,164.003"/>
				<path fill="#FFFFFF" d="M67.742,170.771l-0.134,0.662c0.618,0.841,1.111,1.754,1.901,2.408
					C68.94,172.734,68.519,172.275,67.742,170.771"/>
				<path fill="#FFFFFF" d="M69.204,170.715c-0.327-0.364-0.522-0.798-0.742-1.229c0.211,0.762,0.636,1.416,1.031,2.088
					L69.204,170.715"/>
				<path fill="#FFFFFF" d="M95.118,165.083l-0.137,0.35c-0.254,1.804-0.805,3.587-1.645,5.24
					C94.265,168.926,94.864,167.019,95.118,165.083"/>
				<path fill="#FFFFFF" d="M74.641,139.707c0.64-0.23,1.564-0.125,2.242-0.278c-0.884,0.075-1.76,0.119-2.625,0.224L74.641,139.707
					"/>
				<path fill="#FFFFFF" d="M52.267,151.607c0.148,1.359-1.024,1.886,0.259,0.988C53.213,151.046,52.258,152.167,52.267,151.607"/>
				<path fill="#FFFFFF" d="M50.761,157.898c0.294-0.906,0.35-1.449,0.462-1.975C50.408,156.964,50.845,157.187,50.761,157.898"/>
			</g>
		</g>
		<g id="debian" clip-path="url(#SVGID_2_)">
			<path id="_x39_" fill="#FFFFFF" d="M294.711,157.893c-8.461,0.25-15.812-7.164-15.812-15.205c0-8.903,6.443-16.721,16.066-16.721
				c9.621,0,15.553,7.818,15.553,19.836c0,10.354-3.469,17.593-8.104,22.083c-3.614,3.544-8.61,5.718-13.676,6.298
				c-2.313,0.362-4.34,0.433-5.856,0.362c0,0,21.604-6.497,22.285-24.275c0.147-3.979,2.896-19.812-10.71-19.45
				c-5.424,0.142-9.262,4.776-9.262,11.438c0,5.862,1.799,10.014,7.736,11.469c4.148,1.017,6.752-0.592,9.83-8.108
				C302.764,145.618,304.125,157.616,294.711,157.893z"/>
			<g enable-background="new    ">
				<path fill="#FFFFFF" d="M173.972,187.339l-1.296,7.056l-1.152,0.359c-2.88-1.872-5.761-2.808-7.849-2.808
					c-2.448,0-3.745,1.512-3.745,3.096c0,5.328,14.833,4.032,14.833,14.474c0,5.544-4.176,10.944-13.393,10.944
					c-3.24,0-7.057-0.72-10.729-2.16l1.08-7.488l0.936-0.576c3.096,2.593,7.128,4.104,9.793,4.104c2.664,0,4.104-1.584,4.104-3.313
					c0-5.328-14.905-4.032-14.905-14.689c0-6.047,4.825-10.656,13.105-10.656C167.923,185.683,171.164,186.259,173.972,187.339z"/>
				<path fill="#FFFFFF" d="M199.531,211.461l0.791,0.72l-0.936,5.688c-2.376,1.224-4.896,2.016-7.488,2.304
					c-6.481-0.647-9.721-3.816-9.721-9.505l0.36-5.976l-0.072-12.386h-4.464l-0.36-0.504l0.504-5.256h4.249v-5.544l8.712-2.809
					l0.648,0.576l-0.216,7.776h8.569l0.287,0.505l-0.432,5.255h-8.568l-0.433,16.13c0,3.168,1.152,4.248,3.745,4.248
					C196.146,212.685,197.73,212.324,199.531,211.461z"/>
				<path fill="#FFFFFF" d="M225.667,186.331v8.857l-0.937,0.359c-0.936-0.359-1.871-0.504-2.664-0.504
					c-2.592,0-5.184,1.584-7.561,5.328v4.608l0.504,14.762h-9.576l0.504-13.825l-0.432-19.009l9.145-0.792l-0.072,6.552h0.504
					c2.52-4.608,5.688-6.48,8.857-6.48C224.443,186.187,225.091,186.259,225.667,186.331z"/>
				<path fill="#FFFFFF" d="M236.466,204.26c0.36,5.904,3.097,9.073,8.929,9.073c2.809,0,6.337-0.864,9.648-2.593l0.793,0.504
					l-1.297,7.057c-3.023,1.297-6.624,2.16-10.08,2.16c-10.657,0-16.85-6.552-16.85-17.281c0-10.945,6.48-17.497,16.561-17.497
					c8.426,0,13.033,4.967,13.033,13.176c0,1.225-0.144,2.952-0.287,3.96l-1.369,1.368L236.466,204.26z M248.923,197.779
					c0-3.96-1.944-5.832-5.112-5.832c-3.744,0-6.265,2.52-7.129,7.056l12.098-0.359L248.923,197.779z"/>
				<path fill="#FFFFFF" d="M282.187,211.461l0.792,0.72l-0.936,5.688c-2.377,1.224-4.896,2.016-7.489,2.304
					c-6.48-0.647-9.721-3.816-9.721-9.505l0.36-5.976l-0.072-12.386h-4.465l-0.359-0.504l0.504-5.256h4.248v-5.544l8.713-2.809
					l0.648,0.576l-0.217,7.776h8.569l0.288,0.505l-0.432,5.255h-8.569l-0.433,16.13c0,3.168,1.152,4.248,3.745,4.248
					C278.803,212.685,280.387,212.324,282.187,211.461z"/>
				<path fill="#FFFFFF" d="M310.051,187.411l-1.584,7.632l-0.792,0.36c-2.231-1.225-4.392-2.017-6.552-2.017
					c-4.393,0-6.913,3.24-6.913,9.145c0,6.697,2.664,10.369,7.488,10.369c2.232,0,4.681-0.647,7.2-1.8l0.721,0.576l-0.936,7.416
					c-2.736,0.864-5.905,1.368-8.857,1.368c-9.217,0-14.689-6.336-14.689-17.065c0-11.089,5.977-17.785,16.058-17.785
					C304.291,185.611,307.604,186.259,310.051,187.411z"/>
				<path fill="#FFFFFF" d="M335.684,198.859c0.072-3.384-1.512-5.328-4.537-5.328c-2.232,0-4.536,1.08-6.84,3.024l-0.145,8.424
					l0.504,14.762h-9.576l0.504-13.897l-0.432-35.93l9.576-0.721l-0.359,21.818h0.432c2.664-2.448,5.616-4.176,8.641-5.184
					c7.345,0,11.233,3.456,11.089,9.649l-0.216,9.576l0.432,14.689h-9.648L335.684,198.859z"/>
			</g>
			<g>
				<path fill="#FFFFFF" d="M168.81,144.631c-0.047,0.05-0.047,7.771-0.143,9.787c-0.095,1.629-0.24,5.132-3.694,5.132
					c-3.551,0-4.415-4.079-4.701-5.853c-0.336-1.965-0.336-3.6-0.336-4.316c0-2.303,0.143-8.732,5.564-8.732
					c1.632,0,2.543,0.48,3.263,0.864L168.81,144.631z M154.897,150.293c0,13.527,7.196,13.527,8.252,13.527
					c2.974,0,4.894-1.632,5.708-4.461l0.097,4.269c0.911-0.048,1.825-0.144,3.31-0.144c0.529,0,0.958,0,1.344,0.047
					c0.385,0,0.767,0.047,1.199,0.096c-0.767-1.534-1.343-4.986-1.343-12.475c0-7.292,0-19.619,0.625-23.362
					c-1.727,0.817-3.216,1.345-6.478,1.632c1.295,1.392,1.295,2.111,1.295,8.441c-0.91-0.287-2.063-0.624-4.03-0.624
					C156.289,137.243,154.897,144.726,154.897,150.293"/>
				<path fill="#FFFFFF" d="M180.916,147.842c0.047-3.98,0.864-7.53,4.269-7.53c3.744,0,4.029,4.125,3.933,7.53H180.916z
					 M193.867,148.325c0-5.612-1.103-11.13-8.202-11.13c-9.786,0-9.786,10.843-9.786,13.145c0,9.737,4.364,13.577,11.705,13.577
					c3.26,0,4.845-0.479,5.708-0.719c-0.045-1.729,0.191-2.832,0.48-4.318c-1.009,0.625-2.302,1.439-5.184,1.439
					c-7.483,0-7.58-6.814-7.58-9.164h12.763L193.867,148.325"/>
				<path fill="#FFFFFF" d="M209.476,150.387c0,4.461-0.815,10.459-6.381,10.459c-0.769,0-1.728-0.146-2.351-0.289
					c-0.098-1.729-0.098-4.702-0.098-8.156c0-4.126,0.432-6.281,0.77-7.34c1.006-3.405,3.262-3.451,3.691-3.451
					C208.756,141.611,209.476,146.647,209.476,150.387z M195.707,155.616c0,3.551,0,5.566-0.576,7.102
					c1.967,0.768,4.412,1.199,7.342,1.199c1.869,0,7.291,0,10.218-5.996c1.392-2.782,1.87-6.525,1.87-9.356
					c0-1.728-0.191-5.516-1.583-7.916c-1.343-2.253-3.502-3.405-5.804-3.405c-4.606,0-5.948,3.837-6.667,5.805
					c0-2.445,0.047-10.985,0.429-15.352c-3.117,1.44-5.037,1.676-7.098,1.87c1.871,0.768,1.871,3.936,1.871,14.249v11.801"/>
				<path fill="#FFFFFF" d="M223.783,163.627c-0.961-0.143-1.634-0.239-3.023-0.239c-1.532,0-2.592,0.097-3.692,0.239
					c0.479-0.91,0.675-1.344,0.815-4.461c0.191-4.27,0.238-15.688-0.098-18.087c-0.24-1.825-0.67-2.111-1.342-2.591
					c3.934-0.383,5.035-0.67,6.858-1.534c-0.382,2.109-0.433,3.169-0.433,6.38C222.773,159.888,222.727,161.661,223.783,163.627"/>
				<path fill="#FFFFFF" d="M239.146,150.05c-0.096,3.022-0.146,5.134-0.962,6.812c-1.008,2.159-2.688,2.783-3.935,2.783
					c-2.881,0-3.502-2.396-3.502-4.748c0-4.507,4.031-4.847,5.852-4.847H239.146z M225.951,155.952c0,3.024,0.914,6.045,3.601,7.342
					c1.198,0.527,2.397,0.527,2.782,0.527c4.414,0,5.899-3.263,6.813-5.277c-0.05,2.111,0,3.404,0.144,5.085
					c0.865-0.048,1.728-0.144,3.17-0.144c0.813,0,1.58,0.096,2.396,0.144c-0.528-0.815-0.815-1.296-0.96-3.167
					c-0.096-1.821-0.096-3.646-0.096-6.188l0.049-9.788c0-3.649-0.961-7.246-8.157-7.246c-4.75,0-7.53,1.44-8.922,2.16
					c0.576,1.055,1.058,1.964,1.487,4.03c1.873-1.633,4.318-2.497,6.811-2.497c3.985,0,3.985,2.641,3.985,6.381
					c-0.911-0.046-1.681-0.141-2.976-0.141C229.981,147.175,225.951,149.523,225.951,155.952"/>
				<path fill="#FFFFFF" d="M266.777,158.879c0.049,1.632,0.049,3.359,0.721,4.752c-1.059-0.098-1.681-0.24-3.646-0.24
					c-1.151,0-1.774,0.098-2.688,0.24c0.19-0.625,0.289-0.863,0.386-1.68c0.144-1.103,0.239-4.799,0.239-6.096v-5.181
					c0-2.255,0-5.519-0.146-6.667c-0.097-0.815-0.332-3.024-3.119-3.024c-2.733,0-3.646,2.014-3.979,3.646
					c-0.383,1.678-0.383,3.502-0.383,10.602c0.047,6.142,0.047,6.714,0.524,8.396c-0.813-0.096-1.821-0.19-3.26-0.19
					c-1.153,0-1.923,0.047-2.88,0.19c0.339-0.769,0.529-1.152,0.623-3.838c0.1-2.64,0.289-15.592-0.146-18.662
					c-0.239-1.872-0.72-2.303-1.245-2.784c3.887-0.191,5.133-0.815,6.334-1.437v5.083c0.574-1.487,1.772-4.798,6.571-4.798
					c5.997,0,6.044,4.365,6.092,7.245L266.777,158.879"/>
				<path fill="#FFFFFF" d="M224.188,130.166l-3.975,3.971l-3.971-3.971l3.971-3.972L224.188,130.166"/>
			</g>
		</g>
	</g>
</g>
</svg>
